<svg xmlns="http://www.w3.org/2000/svg" xmlns:xlink="http://www.w3.org/1999/xlink" width="66.128" height="53.266" viewBox="0 0 66.128 53.266"><defs><filter id="a" x="9.3" y="0" width="56.829" height="46.247" filterUnits="userSpaceOnUse"><feOffset dy="8" input="SourceAlpha"/><feGaussianBlur stdDeviation="5" result="b"/><feFlood flood-color="#2b2d42" flood-opacity="0.4"/><feComposite operator="in" in2="b"/><feComposite in="SourceGraphic"/></filter><filter id="c" x="0" y="8.115" width="50.114" height="45.152" filterUnits="userSpaceOnUse"><feOffset dy="8" input="SourceAlpha"/><feGaussianBlur stdDeviation="5" result="d"/><feFlood flood-color="#2b2d42" flood-opacity="0.4"/><feComposite operator="in" in2="d"/><feComposite in="SourceGraphic"/></filter></defs><g transform="translate(14.428 5.085)"><path d="M4.849,2.184,1.259,3.538.5,2.742,2.357.79A.825.825,0,0,1,3.4.631l1.513.956a.336.336,0,0,1-.063.6Z" transform="translate(34.648 -0.226)" fill="#fff"/><path d="M4.154,1.989l1.508.956a.319.319,0,0,1,.131.375L3,4.379l-.757-.8L3.841,1.87A.893.893,0,0,1,4.154,1.989Z" transform="translate(32.908 -0.811)" fill="#d90429"/><path d="M1.071,3.656,4.843,2.228a.607.607,0,0,0,.114-1.087L3.443.174A1.138,1.138,0,0,0,2.038.351L0,2.524ZM4.638,1.71,1.224,3,.781,2.535,2.453.743A.569.569,0,0,1,3.136.658l1.536.95Z" transform="translate(34.757 -0.008)" fill="#2b2d42"/><g transform="matrix(1, 0, 0, 1, -14.43, -5.09)" filter="url(#a)"><path d="M7.079,19.506,32.207,4.925a.848.848,0,0,0,.313-1.138h-.011a.848.848,0,0,0-1.138-.307L6.219,18.027a.853.853,0,0,0-.307,1.166h0a.853.853,0,0,0,1.166.313Z" transform="translate(18.5 3.63)" fill="#2b2d42"/></g><path d="M34.44,27.837,37.211,32.7h0l16.254-9.632c.478-.33.683-1.138.364-2.242a4.255,4.255,0,0,0-1.041-1.809c-.808-.831-1.587-1.047-2.111-.808h0L34.44,27.831Z" transform="translate(-33.578 -7.816)" fill="#d90429"/><path d="M53.447,20.985h0a3.482,3.482,0,0,0-.569-1.3c-.961-1.257-1.94-1.616-2.566-1.331l-15.361,9.1a.085.085,0,0,0,0,.114l1.912,3.357.125.034,16.134-9.6A1.03,1.03,0,0,0,53.447,20.985Z" transform="translate(-33.322 -7.876)" fill="#d90429"/><path d="M50.514,21.139c.626-.29,1.6.074,2.566,1.331a3.527,3.527,0,0,1,.25.393L37.4,32.318l-.125-.034L35.87,29.82Z" transform="translate(-33.739 -9.077)" fill="#fff"/><g transform="matrix(1, 0, 0, 1, -14.43, -5.09)" filter="url(#c)"><path d="M53.419,23.089c.626-.432.808-1.382.478-2.543a4.551,4.551,0,0,0-1.138-1.929c-.836-.859-1.741-1.183-2.452-.853l-16.191,9.62-.068.04-.1.228L36.79,32.63l.074.114.228.046Zm-2.845-4.83c.455-.21,1.138.08,1.8.745a3.982,3.982,0,0,1,.973,1.707c.256.9.159,1.644-.239,1.923l-16,9.478-2.5-4.386Z" transform="translate(-18.95 -2.52)" fill="#2b2d42"/></g><path d="M64.786,39.8A4.375,4.375,0,0,1,62.8,36.39c0-1.263.888-1.775,1.986-1.138a4.381,4.381,0,0,1,1.986,3.413C66.771,39.923,65.884,40.441,64.786,39.8Z" transform="translate(-62.501 -15.083)" fill="#2b2d42"/><path d="M66.123,39.938a1.65,1.65,0,0,0,.723-1.525,4.608,4.608,0,0,0-2.128-3.669,1.479,1.479,0,0,0-2.4,1.382,4.631,4.631,0,0,0,2.128,3.681h0a2.071,2.071,0,0,0,1.024.307,1.274,1.274,0,0,0,.654-.176Zm-1.377-.643A4.079,4.079,0,0,1,62.9,36.1a.939.939,0,0,1,1.565-.9,4.079,4.079,0,0,1,1.849,3.192.939.939,0,0,1-1.565.9Z" transform="translate(-62.297 -14.836)" fill="#2b2d42"/><rect width="0.558" height="18.751" transform="matrix(-0.508, -0.861, 0.861, -0.508, 4.321, 23.105)" fill="#2b2d42"/></g></svg>