<svg xmlns="http://www.w3.org/2000/svg" xmlns:xlink="http://www.w3.org/1999/xlink" width="360" height="247" viewBox="0 0 360 247"><defs><clipPath id="a"><rect width="360" height="247" fill="#fff" stroke="#707070" stroke-width="1"/></clipPath><filter id="b" x="-101.79" y="45.988" width="562.915" height="175.905" filterUnits="userSpaceOnUse"><feOffset dy="10" input="SourceAlpha"/><feGaussianBlur stdDeviation="10" result="c"/><feFlood flood-color="#2b2d42" flood-opacity="0.102"/><feComposite operator="in" in2="c"/><feComposite in="SourceGraphic"/></filter><linearGradient id="d" x1="-0.002" y1="0.499" x2="1.002" y2="0.499" gradientUnits="objectBoundingBox"><stop offset="0.7" stop-color="#2b2d42"/><stop offset="1" stop-color="#edf2f4"/></linearGradient><linearGradient id="e" x1="-0.002" y1="0.5" x2="1.001" y2="0.5" gradientUnits="objectBoundingBox"><stop offset="0" stop-color="#edf2f4"/><stop offset="0.3" stop-color="#d90429"/></linearGradient><filter id="f" x="57.891" y="59.266" width="255.683" height="100.368" filterUnits="userSpaceOnUse"><feOffset dy="8" input="SourceAlpha"/><feGaussianBlur stdDeviation="5" result="g"/><feFlood flood-color="#2b2d42" flood-opacity="0.302"/><feComposite operator="in" in2="g"/><feComposite in="SourceGraphic"/></filter><filter id="h" x="40.065" y="40.826" width="68.156" height="72.689" filterUnits="userSpaceOnUse"><feOffset dy="10" input="SourceAlpha"/><feGaussianBlur stdDeviation="10" result="i"/><feFlood flood-color="#2b2d42" flood-opacity="0.302"/><feComposite operator="in" in2="i"/><feComposite in="SourceGraphic"/></filter></defs><g clip-path="url(#a)"><g transform="translate(-72 60.826)"><g transform="translate(0 0)"><g transform="matrix(1, 0, 0, 1, 72, -60.83)" filter="url(#b)"><path d="M503.065,51.689S319.031,110.515,256.077,40.567.15,21.667.15,21.667V71.61S184.184,12.769,247.138,82.718s255.927,18.9,255.927,18.9Z" transform="translate(-71.94 62.3)" fill="#edf2f4"/></g><path d="M.4,32.913l3.386-.853" transform="translate(0.16 12.791)" fill="none" stroke="#2b2d42" stroke-miterlimit="10" stroke-width="2"/><path d="M12.56,33.81C61.062,23.29,199.9-.6,251.476,56.7c54.1,60.156,197.646,25.1,236.915,14.074" transform="translate(5.011 7.907)" fill="none" stroke="#2b2d42" stroke-miterlimit="10" stroke-width="2" stroke-dasharray="5 10"/><path d="M357.5,55.141l3.33-1.021" transform="translate(142.631 21.592)" fill="none" stroke="#2b2d42" stroke-miterlimit="10" stroke-width="2"/><path d="M321.253,106.491q-12.325.252-24.566-.6a213.874,213.874,0,0,1-24.384-2.91,118.605,118.605,0,0,1-23.671-6.631A130.244,130.244,0,0,1,227.2,84.234c-13.612-9.079-26.93-18.8-41.34-26.119a89.771,89.771,0,0,0-22.048-8.156l-2.8-.49-2.8-.35c-.909-.084-1.819-.112-2.714-.168h-2.8a66.074,66.074,0,0,0-11.192.867c-7.149,1.217-13.808,3.679-18.634,7.457s-7.652,8.548-7.96,13.094c-.518,3.274,2.1,8.883,5.82,12.115a25.181,25.181,0,0,0,14.955,6.141,60.156,60.156,0,0,0,21.264-2.294,96.6,96.6,0,0,0,22.034-9.317,144.948,144.948,0,0,0,19.935-13.99,172.393,172.393,0,0,0,17.641-16.942l.755.727c-2.91,2.8-5.736,5.82-8.52,8.827s-5.708,5.89-8.548,8.855c-5.792,5.82-11.751,11.514-17.949,17.109-3.106,2.8-6.281,5.6-9.6,8.24a117.038,117.038,0,0,1-10.436,7.722c-7.345,4.8-15.738,9.051-25.8,10.352a40.375,40.375,0,0,1-7.722.252,37.31,37.31,0,0,1-22.677-9.261,38.723,38.723,0,0,1-9.793-13.654,33.869,33.869,0,0,1-2.434-8.394,28.092,28.092,0,0,1-.35-4.826c0-.42,0-.909,0-1.273l.1-1.105a13.716,13.716,0,0,1,.28-2.182,35.408,35.408,0,0,1,6.785-15.682,40.962,40.962,0,0,1,12.115-10.408,49.077,49.077,0,0,1,13.892-5.19,59.569,59.569,0,0,1,13.99-1.287,79.226,79.226,0,0,1,13.374,1.4c1.077.224,2.14.42,3.232.671s2.238.546,3.33.867,2.154.672,3.218,1.035l3.12,1.175a113.639,113.639,0,0,1,22.16,12.829c13.556,9.723,25.741,20.621,39.059,30.064a126.691,126.691,0,0,0,20.985,12.437,108.156,108.156,0,0,0,23.321,6.813,222.436,222.436,0,0,0,48.754,3.246Z" transform="translate(37.303 13.918)" fill="url(#d)"/><path d="M255.3,87.321a10.325,10.325,0,0,1-2.616-6.211,18.97,18.97,0,0,0,8.156,5.848,20.369,20.369,0,0,0-7.345,6.841,10.7,10.7,0,0,1,1.8-6.477Z" transform="translate(100.811 32.36)" fill="#2b2d42"/><path d="M226.2,52.049A28.8,28.8,0,0,1,210,48.775c.951-7.946,4.2-13.36,7.359-13.514,2.392-.112,4.477,2.672,6.141,4.91.406.546.951,1.315,1.5,2.2" transform="translate(83.783 14.067)" fill="none" stroke="#d90429" stroke-miterlimit="10" stroke-width="1"/><path d="M219.19,53.064c1.581-12.7,7.135-21.1,11.052-20.873s8.52,7.988,8.6,20.873C232.3,52.658,225.751,53.47,219.19,53.064Z" transform="translate(87.45 12.842)" fill="none" stroke="#d90429" stroke-miterlimit="10" stroke-width="1"/><path d="M233.336,51.643h0c.923.881,2.266.49,6.141,0,6.995-.9,7.778-.294,8.59-1.231,2.8-3.162-2.1-14.983-7.373-14.731-3.064.14-6.058,4.351-7.359,9.793-.084.224-.252.685-.406,1.259" transform="translate(92.932 14.234)" fill="none" stroke="#d90429" stroke-miterlimit="10" stroke-width="1"/><circle cx="3.679" cy="3.679" r="3.679" transform="translate(298.05 37.674)" fill="#d90429"/><circle cx="3.679" cy="3.679" r="3.679" transform="translate(314.012 32.75)" fill="#d90429"/><circle cx="3.679" cy="3.679" r="3.679" transform="translate(329.975 40.122)" fill="#d90429"/><g transform="matrix(1, 0, 0, 1, 72, -60.83)" filter="url(#f)"><path d="M103.57,3.947q12.325-.252,24.566.588a216.31,216.31,0,0,1,24.384,2.91,120.309,120.309,0,0,1,23.671,6.631A130.689,130.689,0,0,1,197.623,26.19c13.626,9.079,26.832,18.928,41.144,26.454a93.731,93.731,0,0,0,21.992,8.646l2.8.56,2.8.42c.923.1,1.847.154,2.8.238l2.882.14a67.346,67.346,0,0,0,11.318-.616,43.368,43.368,0,0,0,19.586-7.289c5.274-3.819,8.576-9.079,9.023-14.339.671-4.2-2.28-10.338-6.435-13.99a26.091,26.091,0,0,0-16.438-6.281,51.231,51.231,0,0,0-10.52.588,75.545,75.545,0,0,0-11.052,2.672,103.521,103.521,0,0,0-11.01,4.309c-3.6,1.707-7.163,3.567-10.66,5.6a170.954,170.954,0,0,0-37.492,31.071l-.756-.741c5.764-5.792,11.192-11.947,17.039-17.711S236.416,34.43,242.7,28.946c3.134-2.8,6.351-5.442,9.793-7.988a115.06,115.06,0,0,1,10.576-7.317A75.374,75.374,0,0,1,274.846,7.71,51.132,51.132,0,0,1,288.458,4.3a39.787,39.787,0,0,1,15.025,1.231,35.142,35.142,0,0,1,13.892,7.624,36.933,36.933,0,0,1,9.233,12.926,32.176,32.176,0,0,1,2.308,7.932,26.932,26.932,0,0,1,.336,4.477,20.749,20.749,0,0,1-.126,2.21,20.624,20.624,0,0,1-.252,2.056,33.464,33.464,0,0,1-6.351,14.829,39.171,39.171,0,0,1-11.472,10.031,53.51,53.51,0,0,1-26.958,6.631A78.607,78.607,0,0,1,270.929,73.1c-1.077-.21-2.126-.392-3.218-.616s-2.2-.5-3.274-.783-2.126-.63-3.176-.965l-3.106-1.119A110.238,110.238,0,0,1,235.94,57.289C222.3,47.776,210,37,196.7,27.547A127.308,127.308,0,0,0,175.715,15.11a107.231,107.231,0,0,0-23.349-6.869,221.429,221.429,0,0,0-48.74-3.26Z" transform="translate(-30.68 62.38)" fill="url(#e)"/></g><g transform="matrix(1, 0, 0, 1, 72, -60.83)" filter="url(#h)"><path d="M107.09,6.2a10.408,10.408,0,0,1,1.8,6.491,19.082,19.082,0,0,0-7.345-6.841A20.033,20.033,0,0,0,109.706,0a10.716,10.716,0,0,1-2.616,6.2Z" transform="translate(-31.48 60.83)" fill="#d90429"/></g></g></g></g></svg>