<svg xmlns="http://www.w3.org/2000/svg" xmlns:xlink="http://www.w3.org/1999/xlink" width="67.164" height="51.962" viewBox="0 0 67.164 51.962"><defs><filter id="a" x="20.433" y="0" width="46.731" height="40.903" filterUnits="userSpaceOnUse"><feOffset dy="8" input="SourceAlpha"/><feGaussianBlur stdDeviation="5" result="b"/><feFlood flood-color="#2b2d42" flood-opacity="0.6"/><feComposite operator="in" in2="b"/><feComposite in="SourceGraphic"/></filter><filter id="c" x="0" y="4.098" width="58.43" height="47.864" filterUnits="userSpaceOnUse"><feOffset dy="8" input="SourceAlpha"/><feGaussianBlur stdDeviation="5" result="d"/><feFlood flood-color="#2b2d42" flood-opacity="0.6"/><feComposite operator="in" in2="d"/><feComposite in="SourceGraphic"/></filter></defs><g transform="translate(14.806 4.935)"><path d="M251.567,56.173v-3a.106.106,0,0,0-.064-.093l-9.941-4.363h0l-1.919-1.106a1.694,1.694,0,0,0-.974-.178.059.059,0,0,1-.047,0L236.2,46.376a.072.072,0,0,0-.042,0h-.792a.106.106,0,0,0-.106.106v3.109c0,.152.119.267.318.381l10.644,6.146a4,4,0,0,0,1.538.466l2.444.267c.665.072,1.25-.2,1.343-.555Z" transform="translate(-214.43 -44.078)" fill="#d90429"/><g transform="matrix(1, 0, 0, 1, -14.81, -4.94)" filter="url(#a)"><path d="M250.147,56.733h-.237l-2.444-.267a4.126,4.126,0,0,1-1.622-.5L235.2,49.828a.75.75,0,0,1-.424-.538V46.143a.313.313,0,0,1,.313-.313h.792a.309.309,0,0,1,.127.03l2.4,1.05a1.906,1.906,0,0,1,1.067.2l1.915,1.106,9.933,4.359a.309.309,0,0,1,.186.284v3.02L251.49,56A1.321,1.321,0,0,1,250.147,56.733Zm-14.965-7.548h0c0,.085.038.148.224.258l10.64,6.142a3.813,3.813,0,0,0,1.461.424l2.44.263c.614.068,1.063-.186,1.118-.424V52.929L241.2,48.6l-1.944-1.122a1.525,1.525,0,0,0-.847-.148.288.288,0,0,1-.148-.025l-2.4-1.05h-.669Z" transform="translate(-199.35 -38.83)" fill="#2b2d42"/></g><path d="M267.056,59.218,262.24,57.1v5.337a4.443,4.443,0,0,0,1.076.258l2.444.263c.665.072,1.25-.2,1.343-.555V59.311A.106.106,0,0,0,267.056,59.218Z" transform="translate(-229.982 -50.262)" fill="#2b2d42"/><path d="M265.693,62.756h-.237l-2.444-.267a4.51,4.51,0,0,1-1.127-.267l-.136-.051V56.36l5.108,2.241a.309.309,0,0,1,.186.284v3l-.021.136A1.291,1.291,0,0,1,265.693,62.756Zm-3.528-.885a4.413,4.413,0,0,0,.894.195l2.44.263c.614.068,1.063-.186,1.118-.4V58.952L262.152,57Z" transform="translate(-229.699 -49.835)" fill="#2b2d42"/><path d="M236.289,46.4l-.119-.051a.08.08,0,0,0-.042,0h-.792a.106.106,0,0,0-.106.106v3.109c0,.152.114.267.318.381l.729.424Z" transform="translate(-214.412 -44.061)" fill="#2b2d42"/><path d="M236.231,50.413l-1.038-.6a.75.75,0,0,1-.424-.538V46.143a.313.313,0,0,1,.313-.313h.792a.279.279,0,0,1,.127.03l.241.106Zm-1.059-1.228h0c0,.085.034.148.224.258l.424.237V46.249h-.644Z" transform="translate(-214.147 -43.765)" fill="#2b2d42"/><path d="M250.254,47.758l-10.644-6.142a1.8,1.8,0,0,0-1.622,0l-2.44,1.4a.5.5,0,0,0,0,.936L246.192,50.1a4,4,0,0,0,1.538.466l2.444.267c.792.085,1.491-.318,1.343-.775l-.462-1.41A1.694,1.694,0,0,0,250.254,47.758Z" transform="translate(-214.403 -41.225)" fill="#d90429"/><path d="M253.352,52.519l-.034-.106a1.694,1.694,0,0,0-.813-.889l-10.644-6.142a1.77,1.77,0,0,0-1.622,0l-2.059,1.186,9.869,5.7a4,4,0,0,0,1.533.462l2.444.267A1.34,1.34,0,0,0,253.352,52.519Z" transform="translate(-216.113 -43.394)" fill="#fff"/><path d="M250.121,50.784a2.169,2.169,0,0,1-.237,0l-2.444-.267a4.193,4.193,0,0,1-1.622-.5l-10.64-6.142a.7.7,0,0,1,0-1.3l2.427-1.4a2,2,0,0,1,1.834,0l10.657,6.15a1.864,1.864,0,0,1,.906,1l.457,1.41a.614.614,0,0,1-.123.6A1.567,1.567,0,0,1,250.121,50.784Zm-11.6-9.424a1.482,1.482,0,0,0-.712.165l-2.427,1.4c-.148.085-.233.191-.233.288a.39.39,0,0,0,.233.292l10.64,6.142a3.812,3.812,0,0,0,1.461.445l2.44.263a1.3,1.3,0,0,0,1.072-.3.208.208,0,0,0,.051-.208l-.457-1.41a1.5,1.5,0,0,0-.72-.771l-10.64-6.146A1.453,1.453,0,0,0,238.524,41.36Z" transform="translate(-214.127 -40.955)" fill="#2b2d42"/><path d="M215.037,58.449a1.694,1.694,0,0,0-.707-1.347l-1.775-1.025a.445.445,0,0,0-.453-.038l-.114.064L187.065,70.474a.03.03,0,0,0,0,.047l2.757,2.863a.025.025,0,0,0,.034,0l24.567-14.147.377-.216A.6.6,0,0,0,215.037,58.449Z" transform="translate(-186.642 -49.624)" fill="#2b2d42"/><path d="M213.517,58.768l.377-.22c.165-.093.889-.453.889-.762,0-.39-.8-.64-1.059-.928l-1.233-.716a.453.453,0,0,0-.453-.034l-.119.059L186.984,70.539a.034.034,0,0,0,0,.051l2.143,2.228Z" transform="translate(-186.595 -49.664)" fill="#fff"/><g transform="matrix(1, 0, 0, 1, -14.81, -4.94)" filter="url(#c)"><path d="M189.518,73.368l-.152-.123L186.54,70.31v-.123a.237.237,0,0,1,.114-.174l25.071-14.439a.648.648,0,0,1,.652.038l1.779,1.029a1.885,1.885,0,0,1,.809,1.525.8.8,0,0,1-.368.758l-.377.216Zm-2.448-3.109,2.5,2.6,24.8-14.3c.047-.025.161-.089.161-.394a1.478,1.478,0,0,0-.6-1.182l-1.783-1.012a.267.267,0,0,0-.246-.034l-.119.064Z" transform="translate(-171.54 -44.41)" fill="#2b2d42"/></g><path d="M189.022,93.021l-1.779-1.029a1.694,1.694,0,0,1-.7-1.343h0c0-.521.318-.758.7-.534l1.779,1.025a1.694,1.694,0,0,1,.7,1.347h0C189.725,93,189.412,93.245,189.022,93.021Z" transform="translate(-186.346 -69.244)" fill="#d90429"/><path d="M189.037,93.029a.775.775,0,0,1-.385-.114l-1.758-1.025a1.889,1.889,0,0,1-.809-1.525.822.822,0,0,1,.347-.75.648.648,0,0,1,.669.034l1.779,1.029a1.881,1.881,0,0,1,.8,1.525.847.847,0,0,1-.347.75A.546.546,0,0,1,189.037,93.029Zm-.174-.474a.271.271,0,0,0,.25.038.449.449,0,0,0,.14-.39,1.478,1.478,0,0,0-.6-1.165l-1.758-1.029a.28.28,0,0,0-.254-.034.453.453,0,0,0-.14.39,1.482,1.482,0,0,0,.6,1.165Z" transform="translate(-186.082 -68.96)" fill="#2b2d42"/><rect width="28.866" height="0.415" transform="translate(3.158 22.503) rotate(-30.12)" fill="#2b2d42"/></g></svg>