<svg xmlns="http://www.w3.org/2000/svg" xmlns:xlink="http://www.w3.org/1999/xlink" width="272.853" height="63.387" viewBox="0 0 272.853 63.387"><defs><linearGradient id="a" x1="-0.002" y1="0.499" x2="1.002" y2="0.499" gradientUnits="objectBoundingBox"><stop offset="0.7" stop-color="#2b2d42"/><stop offset="1" stop-color="#edf2f4"/></linearGradient><linearGradient id="b" x1="-0.002" y1="0.5" x2="1.001" y2="0.5" gradientUnits="objectBoundingBox"><stop offset="0" stop-color="#edf2f4"/><stop offset="0.3" stop-color="#d90429"/></linearGradient><filter id="c" x="0" y="0" width="62.177" height="63.387" filterUnits="userSpaceOnUse"><feOffset dy="10" input="SourceAlpha"/><feGaussianBlur stdDeviation="10" result="d"/><feFlood flood-color="#2b2d42" flood-opacity="0.302"/><feComposite operator="in" in2="d"/><feComposite in="SourceGraphic"/></filter></defs><g transform="translate(-13.257 -494)"><path d="M154.29,54q-3.29.067-6.557-.161a57.087,57.087,0,0,1-6.509-.777,31.658,31.658,0,0,1-6.318-1.77,34.764,34.764,0,0,1-5.721-3.234,111.128,111.128,0,0,0-11.034-6.972,23.962,23.962,0,0,0-5.885-2.177l-.747-.131-.747-.093c-.243-.022-.485-.03-.724-.045H109.3a17.637,17.637,0,0,0-2.987.232,11.2,11.2,0,0,0-4.974,1.99,5.086,5.086,0,0,0-2.125,3.5,4.34,4.34,0,0,0,1.553,3.234,6.721,6.721,0,0,0,3.992,1.639,16.057,16.057,0,0,0,5.676-.612,25.784,25.784,0,0,0,5.881-2.487,38.69,38.69,0,0,0,5.321-3.734,46.016,46.016,0,0,0,4.709-4.522l.2.194c-.777.747-1.531,1.553-2.274,2.356s-1.524,1.572-2.282,2.364c-1.546,1.553-3.137,3.073-4.791,4.567-.829.747-1.677,1.494-2.562,2.2a31.237,31.237,0,0,1-2.786,2.061,16.347,16.347,0,0,1-6.886,2.763,10.777,10.777,0,0,1-2.061.067,9.959,9.959,0,0,1-6.053-2.472,10.336,10.336,0,0,1-2.614-3.645,9.04,9.04,0,0,1-.65-2.24A7.5,7.5,0,0,1,93.5,44.8v-.34l.026-.295a3.661,3.661,0,0,1,.075-.583A9.451,9.451,0,0,1,95.411,39.4a10.934,10.934,0,0,1,3.234-2.778,13.1,13.1,0,0,1,3.708-1.385,15.9,15.9,0,0,1,3.734-.344,21.146,21.146,0,0,1,3.57.373c.288.06.571.112.863.179s.6.146.889.232.575.179.859.276l.833.314a30.333,30.333,0,0,1,5.915,3.424c3.618,2.6,6.871,5.5,10.426,8.025a33.817,33.817,0,0,0,5.6,3.32,28.869,28.869,0,0,0,6.225,1.819,59.372,59.372,0,0,0,13.013.866Z" transform="translate(-53.247 492.141)" fill="url(#a)"/><path d="M253.378,82.768a2.756,2.756,0,0,1-.7-1.658,5.063,5.063,0,0,0,2.177,1.561A5.437,5.437,0,0,0,252.9,84.5a2.857,2.857,0,0,1,.482-1.729Z" transform="translate(-152.989 463.177)" fill="#2b2d42"/><path d="M214.324,39.739A7.689,7.689,0,0,1,210,38.866c.254-2.121,1.12-3.566,1.964-3.607.639-.03,1.195.713,1.639,1.311.108.146.254.351.4.586" transform="translate(-126.246 491.908)" fill="none" stroke="#d90429" stroke-miterlimit="10" stroke-width="0.5"/><path d="M219.19,37.759c.422-3.391,1.9-5.631,2.95-5.571s2.274,2.132,2.3,5.571C222.689,37.651,220.941,37.868,219.19,37.759Z" transform="translate(-132.005 493.832)" fill="none" stroke="#d90429" stroke-miterlimit="10" stroke-width="0.5"/><path d="M233.038,39.939h0c.246.235.6.131,1.639,0,1.867-.239,2.076-.078,2.293-.329.747-.844-.56-4-1.968-3.932-.818.037-1.617,1.161-1.964,2.614-.022.06-.067.183-.108.336" transform="translate(-140.614 491.645)" fill="none" stroke="#d90429" stroke-miterlimit="10" stroke-width="0.5"/><circle cx="0.982" cy="0.982" r="0.982" transform="translate(84.893 524.056)" fill="#d90429"/><circle cx="0.982" cy="0.982" r="0.982" transform="translate(89.153 522.742)" fill="#d90429"/><circle cx="0.982" cy="0.982" r="0.982" transform="translate(93.414 524.709)" fill="#d90429"/><path d="M103.57,3.9q3.29-.067,6.557.157a57.737,57.737,0,0,1,6.509.777,32.113,32.113,0,0,1,6.318,1.77,34.885,34.885,0,0,1,5.721,3.234A127.027,127.027,0,0,0,139.657,16.9a25.018,25.018,0,0,0,5.87,2.308l.747.149.747.112c.246.026.493.041.747.063l.769.037a17.977,17.977,0,0,0,3.021-.164,11.576,11.576,0,0,0,5.228-1.945,5.489,5.489,0,0,0,2.409-3.827A4.782,4.782,0,0,0,157.476,9.9a6.964,6.964,0,0,0-4.388-1.677,13.675,13.675,0,0,0-2.808.157,20.165,20.165,0,0,0-2.95.713,27.633,27.633,0,0,0-2.939,1.15c-.96.456-1.912.952-2.845,1.494a45.631,45.631,0,0,0-10.007,8.293l-.2-.2c1.538-1.546,2.987-3.189,4.548-4.727s3.144-3.066,4.821-4.529c.836-.747,1.7-1.453,2.614-2.132a30.709,30.709,0,0,1,2.823-1.953,20.12,20.12,0,0,1,3.144-1.583A13.648,13.648,0,0,1,152.92,4a10.62,10.62,0,0,1,4.01.329,9.38,9.38,0,0,1,3.708,2.035,9.858,9.858,0,0,1,2.465,3.45,8.588,8.588,0,0,1,.616,2.117,7.187,7.187,0,0,1,.09,1.195,5.535,5.535,0,0,1-.034.59,5.5,5.5,0,0,1-.067.549,8.932,8.932,0,0,1-1.7,3.958,10.455,10.455,0,0,1-3.062,2.677,14.283,14.283,0,0,1-7.2,1.77,20.982,20.982,0,0,1-3.514-.306c-.288-.056-.568-.1-.859-.164s-.586-.134-.874-.209-.568-.168-.848-.258l-.829-.3a29.425,29.425,0,0,1-5.93-3.29c-3.641-2.539-6.923-5.414-10.474-7.939a33.98,33.98,0,0,0-5.6-3.32,28.622,28.622,0,0,0-6.232-1.833,59.1,59.1,0,0,0-13.01-.87Z" transform="translate(-59.558 511.564)" fill="url(#b)"/><g transform="matrix(1, 0, 0, 1, 13.26, 494)" filter="url(#c)"><path d="M103.029,1.654a2.778,2.778,0,0,1,.482,1.733,5.093,5.093,0,0,0-1.96-1.826A5.347,5.347,0,0,0,103.727,0a2.86,2.86,0,0,1-.7,1.654Z" transform="translate(-71.55 20)" fill="#d90429"/></g><path d="M42.805,520.505s18.367-2.625,29.252,9.418,30.262,8.723,30.262,8.723H285.658" transform="translate(0.452 1.108)" fill="none" stroke="#2b2d42" stroke-width="0.5" stroke-dasharray="2 3"/></g></svg>