<svg xmlns="http://www.w3.org/2000/svg" xmlns:xlink="http://www.w3.org/1999/xlink" width="80.867" height="68.588" viewBox="0 0 80.867 68.588"><defs><filter id="a" x="0" y="0" width="80.867" height="68.588" filterUnits="userSpaceOnUse"><feOffset dy="8" input="SourceAlpha"/><feGaussianBlur stdDeviation="7.5" result="b"/><feFlood flood-color="#2b2d42" flood-opacity="0.502"/><feComposite operator="in" in2="b"/><feComposite in="SourceGraphic"/></filter></defs><g transform="translate(22.485 14.5)"><path d="M66.921,54.778V52.23l-1.225.139-.029.02a5.168,5.168,0,0,0-.612-.408c-.143-.082-.29-.159-.445-.233l-1.225,2.592c-.5.408-1.029.87-1.543,1.3h0a4.319,4.319,0,0,1-2.535-.082c-1.008-.38-1.38-1.041-1.131-1.633h0l1.412-2.972v-2.3h-.02l-1.706.959-.91,1.951a6.27,6.27,0,0,0-.849.408,3.177,3.177,0,0,0-1.853,2.6L42.288,63.64l-7.956,4.58-2.882-.11v2.319h0a1.151,1.151,0,0,0,.678.943h0a3.6,3.6,0,0,0,3.266,0l20.5-11.839a11.732,11.732,0,0,1,5.217-1.327,8.9,8.9,0,0,0,3.984-1.057,3.31,3.31,0,0,0,1.837-2.327h0Z" transform="translate(-31.251 -48.385)" fill="#2b2d42"/><path d="M34.022,96.96l-.029.024a4.735,4.735,0,0,0-.612-.408c-.143-.082-.294-.159-.445-.233l-.065-.11L31.45,96.18V98.5a1.147,1.147,0,0,0,.678.939h0a3.633,3.633,0,0,0,3.07.09.817.817,0,0,0,0-.1h0V96.821Z" transform="translate(-31.251 -76.512)" fill="#d90429"/><g transform="matrix(1, 0, 0, 1, -22.48, -14.5)" filter="url(#a)"><path d="M33.486,71.587a3.5,3.5,0,0,1-1.727-.408A1.339,1.339,0,0,1,31,70.044V67.513l3.033.118L41.9,63.076l11.879-8.981a3.385,3.385,0,0,1,1.955-2.674,6.969,6.969,0,0,1,.816-.408l.9-1.939L59.323,48l.216.118v2.474L58.119,53.6a.7.7,0,0,0,0,.567,1.686,1.686,0,0,0,1.012.792,4.119,4.119,0,0,0,2.368.086c.482-.408.992-.816,1.474-1.225l1.29-2.739.184.09c.155.078.31.155.457.241a5.076,5.076,0,0,1,.547.363l1.417-.159V54.2h0l-.024.376a3.54,3.54,0,0,1-1.923,2.376,9.128,9.128,0,0,1-4.082,1.086,11.549,11.549,0,0,0-5.123,1.3l-20.5,11.839A3.507,3.507,0,0,1,33.486,71.587Zm-2.078-3.65v2.106a.951.951,0,0,0,.576.763,3.372,3.372,0,0,0,3.049,0l20.46-11.826A11.757,11.757,0,0,1,60.8,57.626a8.7,8.7,0,0,0,3.89-1.033,3.15,3.15,0,0,0,1.739-2.172l.029-.11c-.029-.3-.024-.931,0-2.237l-.927.106-.078.069-.159-.082a5.1,5.1,0,0,0-.592-.408l-.245-.131-1.176,2.494c-.5.408-1.029.874-1.543,1.3l-.082.041A4.519,4.519,0,0,1,59,55.348a2.074,2.074,0,0,1-1.225-1.012,1.119,1.119,0,0,1-.1-.621h-.041l.11-.241,1.392-2.935V48.588l-1.388.788-.914,1.964-.073.029a6.5,6.5,0,0,0-.816.408A2.947,2.947,0,0,0,54.2,54.2v.1l-.082.061-11.986,9.05-8.014,4.629Z" transform="translate(-8.5 -33.5)" fill="#2b2d42"/></g><path d="M65.086,54.835c2.478-1.433,2.478-3.752,0-5.185-.143-.082-.29-.159-.445-.233l-1.323,2.821v.033l-.082.171h0a2.135,2.135,0,0,1-1.38.886,4.352,4.352,0,0,1-2.494-.094c-1.008-.38-1.38-1.041-1.131-1.633l1.392-2.951h0a8.638,8.638,0,0,0-3.482,1.025,3.093,3.093,0,0,0-1.857,2.694c.065,1.27-.759,2.494-2.311,3.388L32.134,67.163a.994.994,0,0,0,0,1.882h0a3.621,3.621,0,0,0,3.266,0L55.9,57.206a11.732,11.732,0,0,1,5.217-1.327A8.9,8.9,0,0,0,65.086,54.835Z" transform="translate(-31.257 -48.385)" fill="#fff"/><path d="M33.464,69.327a3.552,3.552,0,0,1-1.727-.408,1.192,1.192,0,0,1,0-2.233l19.807-11.43c1.466-.845,2.27-2.013,2.209-3.2a3.317,3.317,0,0,1,1.959-2.882,8.785,8.785,0,0,1,3.564-1.053H59.4l.147.2-.053.122L58.1,51.394a.7.7,0,0,0,0,.559,1.686,1.686,0,0,0,1.012.792,4.119,4.119,0,0,0,2.368.086,1.984,1.984,0,0,0,1.257-.788l.078-.155,1.429-3.037.184.09c.155.073.31.155.457.241a3.333,3.333,0,0,1,1.959,2.768,3.333,3.333,0,0,1-1.959,2.768h0A9.128,9.128,0,0,1,60.8,55.8a11.549,11.549,0,0,0-5.123,1.3L35.183,68.94a3.547,3.547,0,0,1-1.719.388ZM58.983,48.553a8.136,8.136,0,0,0-3.066.959,2.9,2.9,0,0,0-1.755,2.511c.069,1.347-.816,2.649-2.413,3.576L31.941,67.029a.8.8,0,0,0,0,1.527,3.425,3.425,0,0,0,3.049,0l20.481-11.83a11.81,11.81,0,0,1,5.307-1.351,8.7,8.7,0,0,0,3.89-1.033h0a2.955,2.955,0,0,0,1.755-2.413,2.96,2.96,0,0,0-1.755-2.417l-.245-.131-1.4,2.972H63a2.449,2.449,0,0,1-1.421.857,4.548,4.548,0,0,1-2.617-.1A2.074,2.074,0,0,1,57.733,52.1a1.123,1.123,0,0,1,0-.89Z" transform="translate(-30.963 -48.071)" fill="#2b2d42"/><path d="M86.27,68.717a1.4,1.4,0,0,1-1.274,0,.408.408,0,0,1,0-.735,1.425,1.425,0,0,1,1.274,0,.408.408,0,0,1,0,.735Z" transform="translate(-62.802 -59.736)" fill="#d90429"/><path d="M85.3,66.809a1.519,1.519,0,0,1-.739-.176.592.592,0,0,1,0-1.09,1.633,1.633,0,0,1,1.478,0,.592.592,0,0,1,0,1.09A1.519,1.519,0,0,1,85.3,66.809Zm0-1.037a1.078,1.078,0,0,0-.535.127c-.1.057-.159.127-.159.188s.061.135.159.192a1.2,1.2,0,0,0,1.07,0c.1-.057.159-.131.159-.192s-.057-.131-.159-.188A1.078,1.078,0,0,0,85.3,65.772Z" transform="translate(-62.465 -58.277)" fill="#2b2d42"/><path d="M57.649,71.394l-.086-.049a1.376,1.376,0,0,0-1.225.049l-15.66,9.03c-.367.212-.408.535-.09.718l.086.049a1.4,1.4,0,0,0,1.249-.049l15.635-9.03C57.926,71.9,57.967,71.578,57.649,71.394Z" transform="translate(-36.532 -61.744)" fill="#d90429"/><path d="M40.925,79.22a1.368,1.368,0,0,1-.645-.151l-.086-.033a.563.563,0,0,1-.314-.49.7.7,0,0,1,.408-.58l15.635-9.05a1.588,1.588,0,0,1,1.449-.053l.086.053a.559.559,0,0,1,.318.486.706.706,0,0,1-.408.584l-15.635,9.05a1.661,1.661,0,0,1-.808.184Zm15.807-10.1a1.225,1.225,0,0,0-.6.151L40.488,78.3c-.147.086-.2.18-.2.229s.069.114.11.139l.086.049a1.188,1.188,0,0,0,1.045-.053l15.635-9.014c.151-.09.2-.18.2-.233s-.069-.11-.114-.135l-.086-.041A.91.91,0,0,0,56.732,69.12Z" transform="translate(-36.24 -60.258)" fill="#2b2d42"/></g></svg>