<svg xmlns="http://www.w3.org/2000/svg" width="29.146" height="29.146" viewBox="0 0 29.146 29.146"><defs><style>.a{fill:#2b2d42;}</style></defs><g transform="translate(-18.773 -58.974)"><g transform="translate(18.773 58.974)"><g transform="translate(1.886 1.891)"><path class="a" d="M140.716,130.438A11.534,11.534,0,0,1,140.61,132c.013-.1.026-.2.042-.3a11.657,11.657,0,0,1-.8,2.924c.039-.09.077-.18.113-.27a11.659,11.659,0,0,1-1.493,2.561c.058-.077.116-.151.177-.228a11.735,11.735,0,0,1-2.113,2.113c.077-.058.151-.116.228-.177a11.66,11.66,0,0,1-2.561,1.493c.09-.039.18-.077.27-.113a11.658,11.658,0,0,1-2.924.8c.1-.013.2-.026.3-.042a11.856,11.856,0,0,1-3.13,0c.1.013.2.026.3.042a11.658,11.658,0,0,1-2.924-.8c.09.039.18.077.27.113a11.659,11.659,0,0,1-2.561-1.493c.077.058.151.116.228.177a11.615,11.615,0,0,1-2.113-2.11c.058.077.116.151.177.228a11.659,11.659,0,0,1-1.493-2.561c.039.09.077.18.113.27a11.658,11.658,0,0,1-.8-2.924c.013.1.026.2.042.3a11.856,11.856,0,0,1,0-3.13c-.013.1-.026.2-.042.3a11.658,11.658,0,0,1,.8-2.924c-.039.09-.077.18-.113.27a11.66,11.66,0,0,1,1.493-2.561c-.058.077-.116.151-.177.228a11.616,11.616,0,0,1,2.11-2.113c-.077.058-.151.116-.228.177a11.659,11.659,0,0,1,2.561-1.493c-.09.039-.18.077-.27.113a11.658,11.658,0,0,1,2.924-.8c-.1.013-.2.026-.3.042a11.856,11.856,0,0,1,3.13,0c-.1-.013-.2-.026-.3-.042a11.658,11.658,0,0,1,2.924.8c-.09-.039-.18-.077-.27-.113a11.659,11.659,0,0,1,2.561,1.493c-.077-.058-.151-.116-.228-.177a11.615,11.615,0,0,1,2.113,2.11c-.058-.077-.116-.151-.177-.228a11.66,11.66,0,0,1,1.493,2.561c-.039-.09-.077-.18-.113-.27a11.659,11.659,0,0,1,.8,2.924c-.013-.1-.026-.2-.042-.3a11.115,11.115,0,0,1,.109,1.567,1.126,1.126,0,1,0,2.252,0,12.661,12.661,0,0,0-2.3-7.276,13.225,13.225,0,0,0-2.766-2.853,12.5,12.5,0,0,0-3.349-1.811,12.658,12.658,0,0,0-13.99,3.8,13.275,13.275,0,0,0-2.062,3.452,12.469,12.469,0,0,0-.869,3.789,12.66,12.66,0,0,0,7.318,12.407,12.191,12.191,0,0,0,3.986,1.1A12.662,12.662,0,0,0,142.791,132.5a13.825,13.825,0,0,0,.174-2.062,1.124,1.124,0,1,0-2.249,0Z" transform="translate(-117.596 -117.756)"/></g><g transform="translate(8.322 8.321)"><path class="a" d="M327.929,323.892a5.787,5.787,0,0,1-.042.669c.013-.1.026-.2.042-.3a5.2,5.2,0,0,1-.363,1.335c.039-.09.077-.18.113-.27a5.3,5.3,0,0,1-.663,1.129c.058-.077.116-.151.177-.228a5.189,5.189,0,0,1-.92.92c.077-.058.151-.116.228-.177a5.3,5.3,0,0,1-1.129.663c.09-.039.18-.077.27-.113a5.2,5.2,0,0,1-1.335.363c.1-.013.2-.026.3-.042a5.478,5.478,0,0,1-1.338,0c.1.013.2.026.3.042a5.2,5.2,0,0,1-1.335-.363c.09.039.18.077.27.113a5.3,5.3,0,0,1-1.129-.663c.077.058.151.116.228.177a5.189,5.189,0,0,1-.92-.92c.058.077.116.151.177.228a5.3,5.3,0,0,1-.663-1.129c.039.09.077.18.113.27a5.2,5.2,0,0,1-.363-1.335c.013.1.026.2.042.3a5.478,5.478,0,0,1,0-1.338c-.013.1-.026.2-.042.3a5.2,5.2,0,0,1,.363-1.335c-.039.09-.077.18-.113.27a5.3,5.3,0,0,1,.663-1.129c-.058.077-.116.151-.177.228a5.19,5.19,0,0,1,.92-.92c-.077.058-.151.116-.228.177a5.3,5.3,0,0,1,1.129-.663c-.09.039-.18.077-.27.113a5.2,5.2,0,0,1,1.335-.363c-.1.013-.2.026-.3.042a5.478,5.478,0,0,1,1.338,0c-.1-.013-.2-.026-.3-.042a5.2,5.2,0,0,1,1.335.363c-.09-.039-.18-.077-.27-.113a5.3,5.3,0,0,1,1.129.663c-.077-.058-.151-.116-.228-.177a5.19,5.19,0,0,1,.92.92c-.058-.077-.116-.151-.177-.228a5.3,5.3,0,0,1,.663,1.129c-.039-.09-.077-.18-.113-.27a5.2,5.2,0,0,1,.363,1.335c-.013-.1-.026-.2-.042-.3a5.788,5.788,0,0,1,.042.669,1.126,1.126,0,0,0,2.252,0,6.222,6.222,0,0,0-1.11-3.551A6.489,6.489,0,0,0,326,317.992a6.259,6.259,0,0,0-6.823,1.853,6.81,6.81,0,0,0-1.062,1.782,6.232,6.232,0,0,0,.46,5.478,6.2,6.2,0,0,0,2.689,2.432,6.841,6.841,0,0,0,2.046.566,6.165,6.165,0,0,0,1.943-.1,6.252,6.252,0,0,0,4.835-5.031,7.539,7.539,0,0,0,.1-1.078,1.127,1.127,0,0,0-2.255,0Z" transform="translate(-317.68 -317.64)"/></g><g transform="translate(13.447 25.004)"><path class="a" d="M477,837.4v1.888a1.126,1.126,0,0,0,2.252,0V837.4a1.126,1.126,0,0,0-2.252,0Z" transform="translate(-477 -836.274)"/></g><g transform="translate(13.447 0)"><path class="a" d="M477,60.1v1.888a1.126,1.126,0,1,0,2.252,0V60.1a1.126,1.126,0,1,0-2.252,0Z" transform="translate(-477 -58.974)"/></g><g transform="translate(25.004 13.447)"><path class="a" d="M837.4,479.252h1.888a1.126,1.126,0,0,0,0-2.252H837.4a1.126,1.126,0,0,0,0,2.252Z" transform="translate(-836.274 -477)"/></g><g transform="translate(0 13.447)"><path class="a" d="M60.1,479.252h1.888a1.126,1.126,0,1,0,0-2.252H60.1a1.126,1.126,0,1,0,0,2.252Z" transform="translate(-58.974 -477)"/></g></g></g></svg>